<?xml version="1.0" standalone="no"?>
<!DOCTYPE svg PUBLIC "-//W3C//DTD SVG 20010904//EN"
 "http://www.w3.org/TR/2001/REC-SVG-20010904/DTD/svg10.dtd">
<svg version="1.0" xmlns="http://www.w3.org/2000/svg"
 width="260.000000pt" height="260.000000pt" viewBox="0 0 260.000000 260.000000"
 preserveAspectRatio="xMidYMid meet">
<metadata>
Created by potrace 1.11, written by Peter Selinger 2001-2013
</metadata>
<g transform="translate(0.000000,260.000000) scale(0.100000,-0.100000)"
fill="#000000" stroke="none">
<path d="M1126 2589 c-549 -76 -986 -487 -1103 -1039 -25 -119 -25 -382 0
-500 58 -273 179 -493 376 -683 186 -179 393 -289 651 -344 118 -25 382 -25
500 0 258 55 465 165 651 344 197 190 318 410 376 683 25 118 25 382 0 500
-58 273 -179 493 -376 683 -185 178 -395 290 -646 342 -95 20 -332 28 -429 14z
m430 -646 c-4 -14 -267 -920 -362 -1250 l-15 -53 -147 1 c-147 1 -147 1 -102
16 28 10 66 37 101 72 73 73 101 144 102 256 1 95 -11 141 -55 215 -44 73 -96
108 -182 122 l-69 11 47 12 c52 13 78 34 111 86 38 59 56 127 56 210 0 84 -19
143 -65 204 -31 41 -130 92 -197 104 -37 6 81 9 364 10 394 1 418 0 413 -16z
m-941 -489 l55 -116 -140 -175 c-77 -97 -140 -171 -140 -166 0 5 36 134 80
287 44 152 80 279 80 281 0 20 18 -11 65 -111z m1432 -483 c91 -178 160 -320
152 -316 -14 8 -794 619 -814 637 -5 5 97 7 243 6 l253 -3 166 -324z"/>
</g>
</svg>
